<?xml version="1.0" standalone="no"?><!DOCTYPE svg PUBLIC "-//W3C//DTD SVG 1.1//EN" "http://www.w3.org/Graphics/SVG/1.1/DTD/svg11.dtd"><svg t="1594001889894" class="icon" viewBox="0 0 1024 1024" version="1.1" xmlns="http://www.w3.org/2000/svg" p-id="3163" xmlns:xlink="http://www.w3.org/1999/xlink" width="200" height="200"><defs><style type="text/css"></style></defs><path d="M142.793143 920.649143H881.188571c89.142857 0 134.582857-44.580571 134.582858-132.864V339.072c0-88.283429-45.44-132.425143-134.582858-132.425143h-100.278857c-33.426286 0-43.702857-6.857143-62.994285-28.288l-34.724572-38.582857c-20.992-23.552-42.843429-36.425143-87.424-36.425143h-170.569143c-44.141714 0-66.011429 12.873143-87.424 36.425143l-34.724571 38.582857c-18.852571 20.992-29.568 28.288-62.994286 28.288h-97.28c-89.142857 0-134.582857 44.141714-134.582857 132.425143v448.713143c0 88.283429 45.44 132.864 134.582857 132.864z m1.28-69.010286c-42.422857 0-66.852571-22.710857-66.852572-67.291428v-441.417143c0-44.580571 24.429714-67.291429 66.852572-67.291429h113.133714c38.582857 0 59.154286-7.277714 80.585143-31.268571l33.846857-37.723429c24.429714-27.428571 36.864-34.285714 75.008-34.285714h127.707429c38.144 0 50.578286 6.857143 75.008 34.285714l33.846857 37.705143c21.430857 24.009143 42.002286 31.286857 80.585143 31.286857h116.132571c42.422857 0 66.870857 22.710857 66.870857 67.291429v441.417143c0 44.580571-24.429714 67.291429-66.870857 67.291428z m367.725714-68.132571c129.828571 0 233.984-104.155429 233.984-234.422857 0-130.304-103.716571-234.422857-234.002286-234.422858-129.426286 0-233.563429 104.118857-233.563428 234.422858 0 130.267429 104.137143 234.422857 233.563428 234.422857z m308.132572-339.017143c29.147429 0 53.138286-23.552 53.138285-52.699429a53.138286 53.138286 0 1 0-106.276571 0c0 29.147429 23.990857 52.717714 53.138286 52.717715zM511.780571 718.372571c-93.001143 0-168.850286-75.428571-168.850285-169.289142 0-93.860571 75.428571-169.289143 168.850285-169.289143a169.088 169.088 0 0 1 169.289143 169.289143 169.088 169.088 0 0 1-169.289143 169.289142z" p-id="3164"></path></svg>