<?xml version="1.0" standalone="no"?><!DOCTYPE svg PUBLIC "-//W3C//DTD SVG 1.1//EN" "http://www.w3.org/Graphics/SVG/1.1/DTD/svg11.dtd"><svg t="1594345129863" class="icon" viewBox="0 0 1236 1024" version="1.1" xmlns="http://www.w3.org/2000/svg" p-id="5967" xmlns:xlink="http://www.w3.org/1999/xlink" width="241.40625" height="200"><defs><style type="text/css"></style></defs><path d="M684.118943 341.069283a43.742189 43.742189 0 0 1-43.742188-43.742189V188.91834a43.742189 43.742189 0 0 1 87.484377 0v108.389434c0 24.160604-19.581585 43.751849-43.742189 43.751849z" fill="#6D6E71" p-id="5968"></path><path d="M355.888302 341.069283a43.742189 43.742189 0 0 1-43.751849-43.742189V188.91834a43.742189 43.742189 0 0 1 87.494038 0v108.389434c0 24.160604-19.591245 43.751849-43.751849 43.751849z" fill="#808285" p-id="5969"></path><path d="M752.89117 232.670189H287.106415a43.742189 43.742189 0 0 1-43.742189-43.742189V44.998038c0-24.150943 19.591245-43.742189 43.751849-43.742189h465.775095c24.160604 0 43.742189 19.591245 43.742188 43.742189v143.929962c0 24.150943-19.581585 43.742189-43.742188 43.742189z" fill="#F2C500" p-id="5970"></path><path d="M752.89117 1.255849H571.198792v231.41434h181.692378c24.160604 0 43.742189-19.581585 43.742188-43.742189V44.998038A43.742189 43.742189 0 0 0 752.89117 1.255849z" fill="#F59D00" p-id="5971"></path><path d="M414.323925 624.717283c-398.828679 0-391.168 7.921509-408.411774-21.784151a43.751849 43.751849 0 0 1-0.154566-43.645585L167.704151 275.639547a43.732528 43.732528 0 0 1 73.22566-4.231245l208.63517 283.63834a43.742189 43.742189 0 0 1-35.241056 69.670641z" fill="#57BDB7" p-id="5972"></path><path d="M996.245736 624.717283H414.333585a43.742189 43.742189 0 0 1-35.241057-17.823396L170.457358 323.255547a43.742189 43.742189 0 0 1 35.241057-69.670641h641.738868c16.258415 0 31.174038 9.022792 38.738113 23.416754l148.818113 283.648a43.761509 43.761509 0 0 1-38.738113 64.067623z" fill="#D1D3D4" p-id="5973"></path><path d="M1034.993509 560.64966L886.156075 277.00166a43.751849 43.751849 0 0 0-38.738113-23.416754H571.198792v371.132377h425.056604a43.742189 43.742189 0 0 0 38.738113-64.067623z" fill="#BCBEC0" p-id="5974"></path><path d="M571.198792 624.466113c24.160604 0 43.751849-19.581585 43.75185-43.742188V253.584906H527.456604v327.139019c0 24.160604 19.581585 43.751849 43.742188 43.751849z" fill="#A7A9AC" p-id="5975"></path><path d="M571.198792 253.584906v370.881207c24.160604 0 43.751849-19.581585 43.75185-43.742188V253.584906h-43.75185z" fill="#939598" p-id="5976"></path><path d="M1192.786113 908.345962H939.046642a43.742189 43.742189 0 0 1-43.75185-43.742188c0-93.328906-141.273358-93.357887-141.273358 0 0 24.150943-19.581585 43.742189-43.742189 43.742188H479.637736a43.742189 43.742189 0 0 1-43.742189-43.742188c0-93.338566-141.312-93.328906-141.312 0 0 24.150943-19.581585 43.742189-43.742189 43.742188H43.761509A43.751849 43.751849 0 0 1 0 864.603774V580.975094c0-24.150943 19.581585-43.742189 43.742189-43.742188h1149.043924c24.150943 0 43.742189 19.581585 43.742189 43.742188V864.603774c0 24.150943-19.591245 43.742189-43.742189 43.742188z" fill="#65C6BB" p-id="5977"></path><path d="M1192.786113 537.232906H571.198792v371.113056h139.080453c24.150943 0 43.742189-19.581585 43.742189-43.742188 0-93.319245 141.273358-93.348226 141.273358 0 0 24.150943 19.591245 43.742189 43.742189 43.742188h253.749132c24.150943 0 43.742189-19.581585 43.742189-43.742188V580.975094a43.742189 43.742189 0 0 0-43.742189-43.742188z" fill="#57BDB7" p-id="5978"></path><path d="M229.318038 908.365283H43.742189A43.742189 43.742189 0 0 1 0 864.603774v-185.575849h185.575849c24.150943 0 43.742189 19.591245 43.742189 43.751849v185.575849z" fill="#F59D00" p-id="5979"></path><path d="M365.239547 1022.744151c-87.204226 0-158.140377-70.945811-158.140377-158.140377 0-87.184906 70.936151-158.121057 158.140377-158.121057 87.194566 0 158.140377 70.936151 158.140378 158.121057 0 87.204226-70.936151 158.140377-158.140378 158.140377z" fill="#808285" p-id="5980"></path><path d="M824.677434 1022.744151c-87.204226 0-158.140377-70.945811-158.140377-158.140377 0-87.184906 70.936151-158.121057 158.140377-158.121057 87.184906 0 158.111396 70.936151 158.111396 158.121057 0 87.204226-70.936151 158.140377-158.111396 158.140377z" fill="#6D6E71" p-id="5981"></path><path d="M1236.528302 766.550943h-185.575849a43.742189 43.742189 0 0 1-43.742189-43.751849v-185.575849h185.575849c24.150943 0 43.742189 19.591245 43.742189 43.751849v185.575849z" fill="#E87E04" p-id="5982"></path><path d="M646.453132 766.541283h-56.377962a43.742189 43.742189 0 0 1 0-87.494038h56.377962a43.742189 43.742189 0 0 1 0 87.484378z" fill="#57BDB7" p-id="5983"></path><path d="M646.453132 679.047245h-56.377962c-6.771925 0-13.157434 1.574642-18.876378 4.327849v78.82868a43.52 43.52 0 0 0 18.876378 4.327849h56.377962a43.742189 43.742189 0 0 0 0-87.484378z" fill="#1DA49C" p-id="5984"></path></svg>