<?xml version="1.0" standalone="no"?><!DOCTYPE svg PUBLIC "-//W3C//DTD SVG 1.1//EN" "http://www.w3.org/Graphics/SVG/1.1/DTD/svg11.dtd"><svg t="1594033973814" class="icon" viewBox="0 0 1024 1024" version="1.1" xmlns="http://www.w3.org/2000/svg" p-id="2306" xmlns:xlink="http://www.w3.org/1999/xlink" width="200" height="200"><defs><style type="text/css"></style></defs><path d="M779.95324 958.62199 243.998665 958.62199c-98.623181 0-178.709171-79.953983-178.709171-178.665169L65.289494 243.956198c0-98.623181 80.08599-178.579211 178.709171-178.579211l535.954575 0c98.755188 0 178.75522 79.95603 178.75522 178.579211l0 536.000624C958.70846 878.668007 878.708428 958.62199 779.95324 958.62199L779.95324 958.62199zM869.286848 288.711518c0-74.067926-59.932997-134.044926-133.954875-134.044926L288.623002 154.666592c-73.979922 0-133.912919 59.977-133.912919 134.044926L154.710083 735.289506c0 73.979922 59.932997 134.086881 133.912919 134.086881l446.708971 0c74.021877 0 133.954875-60.106959 133.954875-134.086881L869.286848 288.711518 869.286848 288.711518zM630.948601 691.147146l-118.949113-118.951159L393.048329 691.147146l-59.366086-59.498092 118.863155-118.90818L333.682243 393.922744l59.366086-59.498092 118.951159 118.951159 118.949113-118.951159 59.45409 59.498092-118.949113 118.819153 118.949113 118.90818L630.948601 691.147146 630.948601 691.147146z" p-id="2307"></path></svg>