<?xml version="1.0" standalone="no"?><!DOCTYPE svg PUBLIC "-//W3C//DTD SVG 1.1//EN" "http://www.w3.org/Graphics/SVG/1.1/DTD/svg11.dtd"><svg class="icon" width="200px" height="200.00px" viewBox="0 0 1024 1024" version="1.1" xmlns="http://www.w3.org/2000/svg"><path fill="#333333" d="M723.605333 900.565333a62.890667 62.890667 0 0 1-29.354666-7.317333L512 797.461333l-182.250667 95.786667a62.976 62.976 0 0 1-91.370666-66.389333l34.773333-202.922667-147.413333-143.722667a62.976 62.976 0 0 1 34.901333-107.434666l203.733333-29.610667 91.136-184.618667a62.976 62.976 0 0 1 112.96 0l91.114667 184.64 203.776 29.589334a62.976 62.976 0 0 1 34.901333 107.434666l-147.413333 143.722667 34.773333 202.922667a63.125333 63.125333 0 0 1-62.016 73.706666zM512 752.021333a21.12 21.12 0 0 1 9.92 2.474667l192.170667 101.013333a20.330667 20.330667 0 0 0 29.482666-21.44l-36.693333-213.973333a21.333333 21.333333 0 0 1 6.144-18.88l155.456-151.530667a20.330667 20.330667 0 0 0-11.242667-34.688L642.346667 383.786667a21.290667 21.290667 0 0 1-16.064-11.669334l-96.064-194.688a20.949333 20.949333 0 0 0-36.48 0l-96.064 194.688a21.290667 21.290667 0 0 1-16.064 11.669334L166.762667 414.997333a20.330667 20.330667 0 0 0-11.242667 34.688l155.456 151.530667a21.333333 21.333333 0 0 1 6.122667 18.88l-36.693334 213.973333a20.330667 20.330667 0 0 0 29.504 21.44l192.170667-101.034666a21.12 21.12 0 0 1 9.92-2.453334z"  /></svg>