<?xml version="1.0" standalone="no"?><!DOCTYPE svg PUBLIC "-//W3C//DTD SVG 1.1//EN" "http://www.w3.org/Graphics/SVG/1.1/DTD/svg11.dtd"><svg t="1594345230074" class="icon" viewBox="0 0 1024 1024" version="1.1" xmlns="http://www.w3.org/2000/svg" p-id="10219" xmlns:xlink="http://www.w3.org/1999/xlink" width="200" height="200"><defs><style type="text/css"></style></defs><path d="M411.776 95.1552c46.4448-7.9296 75.8784-19.6416 75.8784-32.7168C487.6544 38.56 389.6576 19.2 268.768 19.2S49.8816 38.56 49.8816 62.4384c0 13.0752 29.4336 24.7872 75.8784 32.7168v831.1552h286.016V95.1552zM310.3552 796.4416H227.1808v-83.1744h83.1744v83.1744z m0-268.5056H227.1808V444.7616h83.1744V527.936zM227.1808 253.6V170.4192h83.1744v83.1744H227.1808z" fill="#0D3F70" p-id="10220"></path><path d="M897.5232 296.9088a21.4208 21.4208 0 0 0-21.4208-21.4208h-400.768a21.4208 21.4208 0 0 0-21.4208 21.4208v629.4016h443.6096V296.9088z m-257.6064 513.8304H558.976v-80.9408h80.9408v80.9408z m0-159.936H558.976V569.8688h80.9408v80.9344z m0-170.048H558.976V399.8144h80.9408v80.9408z m158.3744 329.984h-80.9408v-80.9408h80.9408v80.9408z m0-159.936h-80.9408V569.8688h80.9408v80.9344z m0-170.048h-80.9408V399.8144h80.9408v80.9408z" fill="#0D3F70" p-id="10221"></path><path d="M958.6176 926.3104H71.7888a32.3008 32.3008 0 0 0-32.3008 32.3008v11.2832a32.3008 32.3008 0 0 0 32.3008 32.3008h886.8352a32.3008 32.3008 0 0 0 32.3008-32.3008v-11.2832a32.32 32.32 0 0 0-32.3072-32.3008z" fill="#D34D5B" p-id="10222"></path></svg>