<?xml version="1.0" standalone="no"?><!DOCTYPE svg PUBLIC "-//W3C//DTD SVG 1.1//EN" "http://www.w3.org/Graphics/SVG/1.1/DTD/svg11.dtd"><svg t="1593853432930" class="icon" viewBox="0 0 1024 1024" version="1.1" xmlns="http://www.w3.org/2000/svg" p-id="3089" xmlns:xlink="http://www.w3.org/1999/xlink" width="200" height="200"><defs><style type="text/css"></style></defs><path d="M943.48985 496.300436c0 14.128789-11.452843 25.582655-25.582655 25.582655L137.130705 521.883091c-14.128789 0-25.582655-11.45489-25.582655-25.582655l0 0c0-14.129812 11.453866-25.582655 25.582655-25.582655l780.77649 0C932.035984 470.717781 943.48985 482.170624 943.48985 496.300436L943.48985 496.300436zM943.48985 167.803797c0-14.129812-11.452843-25.582655-25.582655-25.582655L137.130705 142.221142c-14.128789 0-25.582655 11.452843-25.582655 25.582655l0 0c0 14.128789 11.453866 25.582655 25.582655 25.582655l780.77649 0C932.035984 193.386452 943.48985 181.932586 943.48985 167.803797L943.48985 167.803797zM943.48985 822.766836c0-14.132882-11.452843-25.584702-25.582655-25.584702L137.130705 797.182135c-14.128789 0-25.582655 11.45182-25.582655 25.584702l0 0c0 14.128789 11.453866 25.583678 25.582655 25.583678l780.77649 0C932.035984 848.349491 943.48985 836.894601 943.48985 822.766836L943.48985 822.766836z" p-id="3090"></path></svg>