<?xml version="1.0" standalone="no"?><!DOCTYPE svg PUBLIC "-//W3C//DTD SVG 1.1//EN" "http://www.w3.org/Graphics/SVG/1.1/DTD/svg11.dtd"><svg t="1593853417994" class="icon" viewBox="0 0 1024 1024" version="1.1" xmlns="http://www.w3.org/2000/svg" p-id="2347" xmlns:xlink="http://www.w3.org/1999/xlink" width="200" height="200"><defs><style type="text/css"></style></defs><path d="M443.72992 853.32992A68.28032 68.28032 0 0 1 375.47008 921.6a68.27008 68.27008 0 1 1 68.25984-68.27008zM750.92992 853.32992c0 37.67296-30.55616 68.27008-68.25984 68.27008S614.4 891.00288 614.4 853.32992c0-37.7344 30.5664-68.27008 68.27008-68.27008s68.25984 30.53568 68.25984 68.27008zM921.6 238.92992H260.49536l-10.89536-69.13024c-5.86752-37.0688-41.3696-67.39968-78.92992-67.39968H102.4v68.25984h78.20288l86.30272 546.53952c2.92864 18.5344 20.69504 33.73056 39.46496 33.73056h546.95936v-68.27008H330.56768L319.77472 614.4h533.5552L921.6 238.92992z m-125.22496 307.2H309.00224L271.26784 307.2h568.53504l-43.42784 238.92992z" p-id="2348"></path></svg>