<?xml version="1.0" standalone="no"?><!DOCTYPE svg PUBLIC "-//W3C//DTD SVG 1.1//EN" "http://www.w3.org/Graphics/SVG/1.1/DTD/svg11.dtd"><svg t="1594345109649" class="icon" viewBox="0 0 1024 1024" version="1.1" xmlns="http://www.w3.org/2000/svg" p-id="5133" xmlns:xlink="http://www.w3.org/1999/xlink" width="200" height="200"><defs><style type="text/css"></style></defs><path d="M859.65824 74.89536L695.7568 238.81728 293.23264 134.4512l-59.51488 59.65824 327.87456 178.88256-164.00384 164.00384-163.328-40.5504-27.91424 27.99616 232.50944 150.07744 212.1216-212.1728 178.85184 327.90528 59.60704-59.56608-104.2944-402.47296L949.01248 164.2496a63.10912 63.10912 0 0 0 0.04096-89.43616 63.17056 63.17056 0 0 0-89.3952 0.08192z" fill="#53C2BA" p-id="5134"></path><path d="M293.23264 134.4512l-59.52512 59.65824 327.87456 178.88256 134.17472-134.17472z" fill="#53C2BA" p-id="5135"></path><path d="M51.2 369.3056L208.11776 212.3776l7.34208 7.33184L58.53184 376.6272zM131.328 364.88192L257.1264 239.104l7.33184 7.33184L138.67008 372.224zM225.03424 346.90048l81.07008-81.07008 7.33184 7.33184-81.05984 81.07008zM297.54368 350.08512l57.5488-57.5488 7.33184 7.34208-57.5488 57.5488zM363.52 359.8336l40.56064-40.57088 7.33184 7.34208-40.57088 40.56064zM425.00096 367.99488l24.14592-24.13568 7.33184 7.33184-24.13568 24.13568zM474.7264 385.20832l16.78336-16.7936 7.33184 7.33184-16.7936 16.7936z" fill="#F1B57D" p-id="5136"></path><path d="M647.33184 965.48864L804.2496 808.56064l7.34208 7.33184-156.93824 156.93824zM651.75552 885.3504L777.5232 759.56224l7.33184 7.33184-125.76768 125.77792zM669.73696 791.63392l81.07008-81.07008 7.33184 7.34208-81.07008 81.05984zM666.5216 719.13472l57.5488-57.5488 7.34208 7.33184-57.5488 57.5488zM656.78336 653.09696l40.5504-40.56064 7.34208 7.33184-40.56064 40.56064zM648.61184 591.64672l24.14592-24.13568 7.33184 7.33184-24.13568 24.13568zM631.43936 541.952l16.7936-16.7936 7.33184 7.33184-16.7936 16.7936z" fill="#F1B57D" p-id="5137"></path><path d="M879.4624 117.5552a5.18144 5.18144 0 0 0-7.33184 0l-12.84096 12.84096a5.18144 5.18144 0 1 0 7.33184 7.33184l12.84096-12.84096a5.18144 5.18144 0 0 0 0-7.33184zM561.408 428.288L534.3232 455.3728a5.18144 5.18144 0 1 0 7.33184 7.33184l27.0848-27.0848a5.18144 5.18144 0 1 0-7.33184-7.33184zM669.72672 319.95904l-27.0848 27.0848a5.18144 5.18144 0 1 0 7.33184 7.33184l27.0848-27.0848a5.18144 5.18144 0 1 0-7.33184-7.33184zM723.89632 265.79968l-27.0848 27.0848a5.18144 5.18144 0 1 0 7.33184 7.33184l27.0848-27.0848a5.18144 5.18144 0 1 0-7.33184-7.33184zM832.21504 157.47072l-27.0848 27.0848a5.18144 5.18144 0 1 0 7.33184 7.33184l27.0848-27.0848a5.18144 5.18144 0 1 0-7.33184-7.33184zM778.05568 211.63008l-27.0848 27.0848a5.18144 5.18144 0 1 0 7.33184 7.33184l27.0848-27.0848a5.18144 5.18144 0 1 0-7.33184-7.33184zM615.56736 374.12864l-27.0848 27.0848a5.18144 5.18144 0 1 0 7.33184 7.33184l27.0848-27.0848a5.18144 5.18144 0 1 0-7.33184-7.33184zM507.24864 482.4576l-27.0848 27.0848a5.18144 5.18144 0 1 0 7.33184 7.33184l27.0848-27.0848a5.18144 5.18144 0 1 0-7.33184-7.33184zM453.08928 536.61696l-12.83072 12.83072a5.18144 5.18144 0 1 0 7.33184 7.33184l12.83072-12.83072a5.18144 5.18144 0 1 0-7.33184-7.33184z" fill="#FFFFFF" p-id="5138"></path><path d="M972.8 119.54176a68.10624 68.10624 0 0 0-20.08064-48.40448c-26.66496-26.624-70.05184-26.58304-96.72704 0.09216L694.19008 233.05216 294.53312 129.4336a5.18144 5.18144 0 0 0-4.97664 1.35168l-59.52512 59.65824a5.16096 5.16096 0 0 0 1.19808 8.21248l321.78176 175.5648-157.02016 157.04064-160.48128-39.84384a5.2224 5.2224 0 0 0-4.92544 1.37216l-27.91424 27.99616a5.20192 5.20192 0 0 0 0.86016 8.01792l232.50944 150.07744a5.19168 5.19168 0 0 0 6.48192-0.68608l207.21664-207.27808 175.53408 321.82272a5.20192 5.20192 0 0 0 8.21248 1.18784l59.60704-59.56608a5.18144 5.18144 0 0 0 1.35168-4.9664L790.90688 329.7792l161.76128-161.86368A67.8912 67.8912 0 0 0 972.8 119.54176z m-677.9904 20.67456l390.87104 101.34528-125.02016 125.02016-318.39232-173.71136 52.54144-52.65408z m492.8512 178.13504l-9.74848-33.25952-9.95328 2.9184 12.20608 41.66656 103.50592 399.45216-52.61312 52.57216-175.53408-321.8432a5.2224 5.2224 0 0 0-4.54656-2.70336 5.18144 5.18144 0 0 0-3.66592 1.51552L438.14912 667.89376 214.54848 523.56096l21.30944-21.37088 160.48128 39.84384a5.16096 5.16096 0 0 0 4.9152-1.37216L565.248 376.65792 699.42272 242.4832 863.3344 78.56128c22.6304-22.6304 59.4432-22.66112 82.05312-0.09216a57.78432 57.78432 0 0 1 17.0496 41.07264 57.62048 57.62048 0 0 1-17.08032 41.03168l-157.696 157.77792z" fill="#136296" p-id="5139"></path></svg>